<?xml version="1.0" standalone="no"?><!DOCTYPE svg PUBLIC "-//W3C//DTD SVG 1.1//EN" "http://www.w3.org/Graphics/SVG/1.1/DTD/svg11.dtd"><svg width="100%" height="100%" viewBox="0 0 586 171" version="1.1" xmlns="http://www.w3.org/2000/svg" xmlns:xlink="http://www.w3.org/1999/xlink" xml:space="preserve" style="fill-rule:evenodd;clip-rule:evenodd;stroke-linejoin:round;stroke-miterlimit:1.41421;"><g><path d="M29.98,51.862c1.135,-0.383 24.234,-9.658 39.193,-25.938c15.147,-16.098 10.031,-16.854 9.088,-17.802c-0.76,-0.947 -9.279,-1.129 -25.937,14.96c-16.663,16.28 -22.344,28.78 -22.344,28.78ZM96.623,80.067c-16.472,8.902 -17.797,11.743 -29.344,8.519c-11.548,-3.217 -14.955,-16.281 -20.257,-17.229c-5.303,-1.129 -12.687,4.738 -18.554,9.284c-5.872,4.355 -17.61,14.194 -21.204,14.194c-2.087,0 -7.953,-5.302 -7.198,-7.953c0.192,-0.939 0.757,-5.676 5.494,-13.055c30.101,-47.338 40.514,-58.125 54.335,-66.652c14.012,-8.705 26.884,-9.275 26.884,1.713c0.187,10.978 -20.07,27.066 -29.914,34.456c-9.656,7.378 -33.89,20.07 -35.403,20.443c0,0 -1.895,3.972 -5.111,8.518c-3.22,4.738 -6.249,10.988 -4.168,11.925c2.274,0.948 6.437,-2.641 9.849,-5.484c3.407,-2.842 22.908,-16.471 29.345,-15.715c6.245,0.756 8.139,7.379 14.198,14.576c6.058,7.006 12.686,5.112 18.745,3.216c5.867,-1.885 28.967,-9.647 12.303,-0.756Z" style="fill:#231f20;fill-rule:nonzero;"/><path d="M118.196,67.194c5.303,-4.919 6.437,-8.901 3.221,-9.839c-3.029,-0.947 -18.553,8.518 -20.07,16.845c-0.378,0.948 11.552,-1.895 16.849,-7.006ZM157.39,79.311c-10.413,8.145 -19.315,14.768 -42.601,15.524c-20.827,0.757 -30.101,-18.366 -15.146,-32.369c14.582,-13.82 26.507,-12.691 29.157,-8.528c2.652,4.173 1.136,7.954 -3.219,13.256c-4.355,5.111 -23.287,13.447 -23.287,13.447c1.895,3.589 3.786,8.328 14.199,9.648c21.965,2.843 38.432,-12.682 40.705,-13.438c2.843,-0.382 0.192,2.46 0.192,2.46Z" style="fill:#231f20;fill-rule:nonzero;"/><path d="M156.624,77.043c14.198,-9.093 16.467,-23.286 16.467,-25.564c0,-2.269 3.221,1.703 5.68,4.354c2.464,2.843 11.174,11.361 11.174,13.065c0,1.703 0,16.854 9.844,19.314c12.873,3.216 26.315,-5.685 30.861,-8.901c4.35,-3.216 5.298,0.383 2.647,2.278c-2.647,2.077 -6.623,4.728 -12.303,7.571c-5.494,2.832 -14.39,7.187 -22.722,5.483c-8.327,-1.703 -14.007,-8.7 -13.821,-22.902c0,-3.035 -8.709,-6.25 -10.599,-5.494c-1.704,0.756 -10.414,10.796 -17.797,14.394c0,0 -0.948,0.565 -1.896,0c-0.756,-0.574 -1.325,-1.139 1.326,-2.842l1.139,-0.756Z" style="fill:#231f20;fill-rule:nonzero;"/><path d="M251.276,67.194c5.302,-4.919 6.441,-8.901 3.221,-9.839c-3.03,-0.947 -18.554,8.518 -20.071,16.845c-0.378,0.948 11.553,-1.895 16.85,-7.006ZM290.469,79.311c-10.413,8.145 -19.314,14.768 -42.6,15.524c-20.827,0.757 -30.101,-18.366 -15.146,-32.369c14.581,-13.82 26.506,-12.691 29.157,-8.528c2.652,4.173 1.135,7.954 -3.22,13.256c-4.355,5.111 -23.286,13.447 -23.286,13.447c1.895,3.589 3.785,8.328 14.198,9.648c21.966,2.843 38.437,-12.682 40.706,-13.438c2.842,-0.382 0.191,2.46 0.191,2.46Z" style="fill:#231f20;fill-rule:nonzero;"/><path d="M307.883,57.92c-1.517,4.546 -8.523,19.314 -7.197,19.314c1.139,0 35.781,-26.703 41.084,-25.937c5.302,0.938 8.522,9.466 9.656,12.873c1.512,3.589 5.303,16.653 7.762,17.419c2.46,0.938 13.629,0.182 22.152,-3.034c8.14,-3.407 16.472,-8.327 17.606,-8.145c1.326,0.191 2.652,2.843 1.704,3.417c-0.947,0.564 -16.094,9.274 -26.885,12.682c-10.6,3.407 -20.635,4.163 -23.855,0.755c-3.595,-3.598 -6.245,-13.628 -7.385,-17.792c-0.942,-4.173 -2.646,-10.413 -14.954,-3.79c-12.303,6.432 -27.833,18.931 -32.752,22.721c-4.924,4.164 -6.058,7.006 -9.088,6.815c-3.029,-0.192 -6.627,-3.226 -1.895,-9.849c4.925,-6.431 13.634,-25.554 14.768,-27.449c0.57,-1.139 10.792,-4.546 9.279,0Z" style="fill:#231f20;fill-rule:nonzero;"/><path d="M420.515,59.815c-3.973,1.129 -17.415,8.326 -20.444,14.012c-3.221,5.675 -3.79,16.089 7.762,15.333c11.547,-0.948 30.857,-6.059 39.38,-10.041c8.327,-3.78 17.227,-6.24 11.925,-3.215c-5.302,3.034 -15.902,9.274 -23.477,11.925c-7.571,2.651 -30.479,8.71 -37.485,7.006c-7.193,-1.895 -13.821,-12.116 0.948,-26.129c14.954,-14.193 29.535,-18.548 33.129,-16.088c3.599,2.459 3.79,7.197 2.273,7.197c-1.512,0 -10.035,-1.33 -14.011,0Z" style="fill:#231f20;fill-rule:nonzero;"/><path d="M480.721,27.063c-0.192,-0.947 -0.192,-2.087 0.186,-3.417c0.378,-1.32 0.761,-2.46 1.517,-3.78c0.756,-1.331 1.326,-2.46 2.082,-3.599c0.756,-1.139 1.512,-1.895 2.46,-2.651c0.569,-0.565 1.325,-0.948 1.895,-0.948c0.756,0.192 1.512,0.383 2.651,0.948c0.947,0.564 1.703,1.139 2.46,2.086c0.947,0.757 1.517,1.513 1.703,2.46c0.378,0.948 0.378,1.895 -0.186,2.46c-0.57,0.756 -1.517,1.895 -2.843,3.024c-1.326,1.139 -2.651,2.278 -3.977,3.226c-1.512,0.947 -2.837,1.704 -3.977,2.077c-1.32,0.756 -2.268,0.756 -2.459,0.574c-0.948,-0.574 -1.512,-1.33 -1.512,-2.46ZM472.011,58.293c0.378,1.139 0.378,2.47 -0.191,3.79c-0.565,1.331 -1.512,2.843 -2.838,4.738c-1.517,1.885 -3.029,4.355 -4.733,7.57c-1.895,3.408 -2.464,6.059 -2.082,8.136c0.378,2.086 1.513,3.599 3.216,4.737c1.704,1.139 3.599,2.087 6.437,2.087c6.436,0.182 9.465,-0.765 12.308,-1.704c2.838,-0.765 5.867,-2.278 8.518,-3.598c2.843,-1.33 6.059,-2.843 7.954,-4.173c2.65,-1.886 5.302,-2.269 6.058,-2.077c1.134,0.565 0.187,1.895 0,2.077c-0.378,0.383 -1.704,1.33 -3.977,2.469c-2.273,1.129 -5.111,2.46 -8.14,3.972c-3.221,1.33 -6.437,3.034 -10.035,4.546c-7.384,3.025 -10.035,3.972 -18.367,3.78c-3.029,0 -5.867,-1.129 -8.326,-2.267c-2.273,-1.14 -3.977,-2.46 -4.547,-4.356c-0.378,-1.32 -0.378,-3.215 0,-5.493c0.57,-2.268 1.134,-4.537 2.274,-7.379c0.947,-2.46 2.081,-5.111 3.407,-7.762c1.325,-2.652 2.651,-4.92 3.976,-7.006c1.326,-2.087 2.46,-3.599 3.408,-4.92c0.947,-1.139 1.703,-1.522 2.081,-1.33c1.896,1.703 3.221,3.034 3.599,4.163Z" style="fill:#231f20;fill-rule:nonzero;"/><path d="M548.11,61.136c-1.891,-2.46 -4.92,-2.46 -9.088,-1.512c-3.972,0.947 -12.682,7.953 -16.28,10.786c-3.599,3.034 -14.39,12.883 -12.686,16.854c1.325,3.216 6.058,2.843 11.93,0.756c6.058,-2.268 12.494,-6.814 16.094,-9.656c3.407,-2.833 10.599,-12.117 11.169,-12.309c0.564,-0.373 4.732,1.522 5.489,2.278c0.947,0.756 -5.303,7.198 -6.628,8.518c-0.943,1.321 3.598,9.466 13.634,9.849c10.035,0.564 22.529,-10.414 23.477,-10.414c0.756,0 0.565,2.652 0.378,3.216c-0.378,0.565 -7.384,6.624 -15.907,9.467c-8.705,3.023 -14.576,2.267 -19.496,-0.757c-4.355,-2.651 -8.709,-8.145 -9.47,-8.145c-0.565,0 -5.111,5.876 -14.764,10.796c-13.256,6.815 -20.826,5.303 -24.233,2.269c-3.599,-3.025 -2.086,-10.605 11.925,-24.043c14.012,-13.256 26.316,-17.036 30.67,-17.227c4.355,-0.383 9.844,3.598 10.035,5.302c0.379,1.512 -4.163,5.867 -4.732,5.867c0,0 -0.57,-0.565 -1.517,-1.895Z" style="fill:#231f20;fill-rule:nonzero;"/><path d="M131.352,152.28l1.359,0c4.35,0 9.063,-0.814 9.063,-6.25c0,-5.351 -5.077,-6.117 -9.288,-6.117l-1.134,0l0,12.367ZM148.345,170.273l-5.168,0l-10.059,-14.452l-1.766,0l0,14.452l-4.259,0l0,-34.168l5.163,0c3.039,0 6.298,0.048 9.016,1.589c2.857,1.675 4.489,4.89 4.489,8.154c0,4.891 -3.264,8.978 -8.202,9.562l10.786,14.863Z" style="fill:#231f20;fill-rule:nonzero;"/><path d="M171.2,136.105l18.353,0l0,3.895l-14.094,0l0,9.562l13.683,0l0,3.904l-13.683,0l0,12.911l14.094,0l0,3.896l-18.353,0l0,-34.168Z" style="fill:#231f20;fill-rule:nonzero;"/><path d="M239.183,142.632c-2.445,-2.173 -5.8,-3.349 -9.016,-3.349c-7.657,0 -13.504,6.383 -13.504,13.954c0,7.474 5.799,13.868 13.413,13.868c3.355,0 6.571,-1.273 9.107,-3.541l0,5.034c-2.627,1.541 -5.982,2.402 -8.973,2.402c-9.743,0 -17.807,-7.753 -17.807,-17.63c0,-10.106 8.112,-17.983 18.171,-17.983c2.991,0 6.025,0.718 8.609,2.307l0,4.938Z" style="fill:#231f20;fill-rule:nonzero;"/><path d="M292.9,153.189c0,-7.523 -5.618,-13.82 -13.639,-13.82c-8.02,0 -13.638,6.297 -13.638,13.82c0,7.791 6.254,13.82 13.638,13.82c7.385,0 13.639,-6.029 13.639,-13.82ZM297.159,153.189c0,10.154 -8.02,17.811 -17.898,17.811c-9.877,0 -17.897,-7.657 -17.897,-17.811c0,-9.781 8.111,-17.802 17.897,-17.802c9.787,0 17.898,8.021 17.898,17.802Z" style="fill:#231f20;fill-rule:nonzero;"/><path d="M325.049,152.28l1.359,0c4.35,0 9.064,-0.814 9.064,-6.25c0,-5.351 -5.077,-6.117 -9.289,-6.117l-1.134,0l0,12.367ZM342.042,170.273l-5.168,0l-10.059,-14.452l-1.766,0l0,14.452l-4.259,0l0,-34.168l5.163,0c3.039,0 6.298,0.048 9.016,1.589c2.857,1.675 4.489,4.89 4.489,8.154c0,4.891 -3.264,8.978 -8.202,9.562l10.786,14.863Z" style="fill:#231f20;fill-rule:nonzero;"/><path d="M368.793,166.377l1.498,0c8.7,0 16.218,-3.263 16.218,-13.188c0,-9.963 -7.518,-13.189 -16.218,-13.189l-1.498,0l0,26.377ZM364.534,136.105l7.068,0c10.466,0 19.166,5.532 19.166,16.902c0,11.648 -8.518,17.266 -19.3,17.266l-6.934,0l0,-34.168Z" style="fill:#231f20;fill-rule:nonzero;"/><path d="M429.717,142.584c-1.268,-2.125 -2.9,-3.215 -5.484,-3.215c-2.718,0 -5.709,1.856 -5.709,4.852c0,2.67 2.627,4.077 4.756,4.891l2.45,0.947c4.848,1.905 8.471,4.585 8.471,10.289c0,6.212 -4.8,10.652 -10.921,10.652c-5.527,0 -9.834,-4.077 -10.556,-9.561l4.307,-0.909c-0.048,3.761 2.943,6.479 6.613,6.479c3.67,0 6.298,-3.082 6.298,-6.661c0,-3.666 -2.943,-5.255 -5.891,-6.479l-2.355,-0.996c-3.895,-1.674 -7.431,-3.895 -7.431,-8.652c0,-5.532 4.895,-8.834 10.059,-8.834c3.804,0 6.934,1.857 8.791,5.158l-3.398,2.039Z" style="fill:#231f20;fill-rule:nonzero;"/></g></svg>